# xmcd
#
# Track frame offsets:
#	150
#	13315
#	24930
#	34826
#	47469
#	59408
#	70937
#	83851
#	96299
#	109109
#	121998
#	134369
#	149052
#	163543
#	177905
#	192071
#	206080
#	220040
#	234021
#	247808
#	261817
#	275370
#	288425
#	303494
#	316215
#
# Disc length: 4376 seconds
#
# Revision: 4
# Processed by: cddbd v1.5.1PL0 Copyright (c) Steve Scherf et al.
# Submitted via: EasyCDDAExtractor 7.5.2.1
#
DISCID=63111619
DTITLE=Furry Lewis - Masters Of Memphis Blues (1927-29) - Disc A (Furry Lewis)
DYEAR=2004
DGENRE=Blues
TTITLE0=Everybody's Blues
TTITLE1=Mr. Furry's Blues
TTITLE2=Sweet Papa Moan
TTITLE3=Rock Island Blues
TTITLE4=Jelly Roll
TTITLE5=Billy Lyons And Stock O'Lee
TTITLE6=Good Looking Girl Blues
TTITLE7=Why Don't You Come Home Blues
TTITLE8=Falling Down Blues
TTITLE9=Big Chief Blues
TTITLE10=Mean Old Bedbug Blues
TTITLE11=Furry's Blues
TTITLE12=I Will Turn Your Money Green (take 1)
TTITLE13=I Will Turn Your Money Green (take 2)
TTITLE14=Mistreatin' Mama
TTITLE15=Dry Land Blues
TTITLE16=Cannon Ball Blues
TTITLE17=Kassie Jones - Part 1
TTITLE18=Kassie Jones - Part 2
TTITLE19=Judge Harsh Blues (take 1)
TTITLE20=Judge Harsh Blues (take 2)
TTITLE21=John Henry (The Steel Driving Man) (take 1)
TTITLE22=John Henry (The Steel Driving Man) (take 2)
TTITLE23=Black Gypsy Blues
TTITLE24=Creeper's Blues
EXTD=Submitted 2/2/98\nJmccoy@efn.org
EXTT0=
EXTT1=
EXTT2=
EXTT3=
EXTT4=
EXTT5=
EXTT6=
EXTT7=
EXTT8=
EXTT9=
EXTT10=
EXTT11=
EXTT12=
EXTT13=
EXTT14=
EXTT15=
EXTT16=
EXTT17=
EXTT18=
EXTT19=
EXTT20=
EXTT21=
EXTT22=
EXTT23=
EXTT24=
PLAYORDER=
